<?xml version="1.0" ?><svg id="Layer_1" style="enable-background:new 0 0 32 32;" version="1.1" viewBox="0 0 32 32" xml:space="preserve" xmlns="http://www.w3.org/2000/svg" xmlns:xlink="http://www.w3.org/1999/xlink"><style type="text/css">
	.st0{fill:none;stroke:#949494;stroke-width:2;stroke-linecap:round;stroke-linejoin:round;}
</style><title/><path class="st0" d="M8,8h16c2.2,0,4,1.8,4,4v11c0,2.2-1.8,4-4,4H8c-2.2,0-4-1.8-4-4V12C4,9.8,5.8,8,8,8z"/><line class="st0" x1="10" x2="10" y1="5" y2="8"/><line class="st0" x1="22" x2="22" y1="5" y2="8"/><line class="st0" x1="4" x2="28" y1="13" y2="13"/><line class="st0" x1="8" x2="10" y1="18" y2="18"/><line class="st0" x1="8" x2="10" y1="22" y2="22"/><line class="st0" x1="15" x2="17" y1="18" y2="18"/><line class="st0" x1="15" x2="17" y1="22" y2="22"/><line class="st0" x1="22" x2="24" y1="18" y2="18"/></svg>